<svg width="512" height="512" viewBox="0 0 512 512" fill="none" xmlns="http://www.w3.org/2000/svg">
<path fill-rule="evenodd" clip-rule="evenodd" d="M256 32C198.563 32 152 78.5624 152 136C152 193.438 198.563 240 256 240C313.438 240 360 193.438 360 136C360 78.5624 313.438 32 256 32ZM328.982 250.78C366.87 226.639 392 184.254 392 136C392 60.8893 331.111 0 256 0C180.89 0 120 60.8893 120 136C120 184.252 145.129 226.634 183.013 250.776C94.5126 277.629 26.7145 352.048 9.34422 444.276C2.60538 480.056 32.8753 507 65.0004 507H314.5C323.337 507 330.5 499.837 330.5 491C330.5 482.163 323.337 475 314.5 475H65.0004C48.5244 475 38.5347 462.18 40.7913 450.199C59.899 348.747 149.004 272 256 272C296.301 272 334.015 282.871 366.421 301.831C374.048 306.293 383.848 303.727 388.31 296.1C392.773 288.473 390.207 278.673 382.58 274.211C365.851 264.423 347.886 256.516 328.982 250.78ZM409 322C417.837 322 425 329.163 425 338V395H483C491.837 395 499 402.163 499 411C499 419.837 491.837 427 483 427H425V485C425 493.837 417.837 501 409 501C400.164 501 393 493.837 393 485V427H336C327.164 427 320 419.837 320 411C320 402.163 327.164 395 336 395H393V338C393 329.163 400.164 322 409 322Z" fill="black"/>
</svg>
