<?xml version="1.0" encoding="utf-8"?>
<!-- Generator: Adobe Illustrator 16.0.0, SVG Export Plug-In . SVG Version: 6.00 Build 0)  -->
<!DOCTYPE svg PUBLIC "-//W3C//DTD SVG 1.1//EN" "http://www.w3.org/Graphics/SVG/1.1/DTD/svg11.dtd">
<svg xmlns:xlink="http://www.w3.org/1999/xlink" version="1.1" id="Layer_1" xmlns="http://www.w3.org/2000/svg" x="0px" y="0px"
	 width="56.69px" height="56.69px" viewBox="0 0 56.69 56.69" enable-background="new 0 0 56.69 56.69" xml:space="preserve">
<g>
	<g>
		<rect x="30.456" y="14.718" width="8.332" height="3"/>
	</g>
	<g>
		<rect x="19.456" y="14.718" width="8.332" height="3"/>
	</g>
	<g>
		<rect x="41.513" y="14.718" width="8.332" height="3"/>
	</g>
	<g>
		<g>
			<rect x="19.456" y="25.375" width="25.746" height="3"/>
		</g>
		<g>
			<rect x="19.456" y="31.328" width="11.332" height="3"/>
		</g>
	</g>
	<path d="M52.566,7.876H5.619c-1.314,0-2.385,1.07-2.385,2.386v29.018c0,1.316,1.07,2.389,2.385,2.389H23.41v5.443h-5.223v2.219
		h21.811v-2.219h-5.221v-5.443h17.789c1.316,0,2.387-1.072,2.387-2.389V10.262C54.953,8.946,53.883,7.876,52.566,7.876z
		 M52.953,39.279c0,0.215-0.174,0.389-0.387,0.389H5.619c-0.213,0-0.385-0.174-0.385-0.389V10.262c0-0.213,0.172-0.386,0.385-0.386
		h46.947c0.213,0,0.387,0.173,0.387,0.386V39.279z"/>
	<g>
		<path d="M14.206,16.807c0,1.178-0.896,2.131-2.299,2.131c-1.345,0-2.242-0.953-2.214-2.131c-0.028-1.233,0.869-2.158,2.243-2.158
			C13.31,14.648,14.178,15.573,14.206,16.807z M9.805,34.328V20.619h4.262v13.709H9.805z"/>
	</g>
</g>
</svg>
