<svg width="512" height="512" viewBox="0 0 512 512" fill="none" xmlns="http://www.w3.org/2000/svg">
<path fill-rule="evenodd" clip-rule="evenodd" d="M178 65C178 31.8629 204.863 5 238 5H447C480.137 5 507 31.8629 507 65V194C507 227.137 480.137 254 447 254H282.714C274.918 254 267.475 257.25 262.176 262.968L243.873 282.72C220.385 308.067 178 291.448 178 256.892V65ZM238 37C222.536 37 210 49.536 210 65V256.892C210 262.348 216.692 264.972 220.401 260.97L238.704 241.218C250.059 228.965 266.008 222 282.714 222H447C462.464 222 475 209.464 475 194V65C475 49.536 462.464 37 447 37H238ZM74 74C58.536 74 46 86.536 46 102V442C46 457.464 58.536 470 74 470H273C288.464 470 301 457.464 301 442V290C301 281.163 308.163 274 317 274C325.837 274 333 281.163 333 290V442C333 475.137 306.137 502 273 502H74C40.8629 502 14 475.137 14 442V102C14 68.8629 40.8629 42 74 42H146C154.837 42 162 49.1634 162 58C162 66.8366 154.837 74 146 74H74ZM447.658 68.0414C453.71 74.48 453.397 84.6058 446.959 90.658L371.959 161.158C366.852 165.958 359.216 166.876 353.117 163.423L298.154 132.304L263.375 185.281C258.526 192.668 248.606 194.725 241.219 189.875C233.832 185.026 231.775 175.106 236.625 167.719L279.625 102.219C284.25 95.1734 293.549 92.9241 300.883 97.0767L358.628 129.771L425.041 67.342C431.48 61.2897 441.606 61.6029 447.658 68.0414ZM114 422.5C114 413.663 121.163 406.5 130 406.5H217.5C226.337 406.5 233.5 413.663 233.5 422.5C233.5 431.337 226.337 438.5 217.5 438.5H130C121.163 438.5 114 431.337 114 422.5Z" fill="black"/>
</svg>
