<?xml version="1.0" encoding="utf-8"?>
<!-- Generator: Adobe Illustrator 16.0.0, SVG Export Plug-In . SVG Version: 6.00 Build 0)  -->
<!DOCTYPE svg PUBLIC "-//W3C//DTD SVG 1.1//EN" "http://www.w3.org/Graphics/SVG/1.1/DTD/svg11.dtd">
<svg xmlns:xlink="http://www.w3.org/1999/xlink" version="1.1" id="Layer_1" xmlns="http://www.w3.org/2000/svg" x="0px" y="0px"
	 width="56.69px" height="56.69px" viewBox="0 0 56.69 56.69" enable-background="new 0 0 56.69 56.69" xml:space="preserve">
<g>
	<path d="M50.692,39.181l-9.68-8.102c-0.723-0.605-1.414-0.732-1.867-0.732c-1.244,0-2.504,0.953-2.504,2.773v7.492H11.994
		c-0.01,0.002-1.498,0.029-2.447-0.895c-0.566-0.551-0.854-1.373-0.854-2.439v-11c0-0.553-0.447-1-1-1s-1,0.447-1,1v11
		c0,1.639,0.498,2.947,1.479,3.891c1.42,1.367,3.377,1.443,3.781,1.443c0.043,0,0.068,0,0.074,0h24.614v7.512
		c0,1.82,1.26,2.773,2.504,2.773c0.453,0,1.145-0.127,1.867-0.732l9.68-8.1c0.74-0.619,1.164-1.508,1.164-2.441
		S51.433,39.8,50.692,39.181z"/>
	<path d="M17.176,25.026c0.723,0.605,1.414,0.732,1.867,0.732c1.246,0,2.504-0.951,2.504-2.773v-7.492H46.2
		c0.012,0.002,1.48-0.029,2.43,0.885c0.574,0.553,0.865,1.377,0.865,2.451v11c0,0.551,0.447,1,1,1s1-0.449,1-1v-11
		c0-1.641-0.496-2.949-1.479-3.893c-1.57-1.512-3.797-1.453-3.855-1.443H21.547v-7.51c0-1.82-1.26-2.773-2.504-2.773
		c-0.453,0-1.145,0.127-1.867,0.732l-9.68,8.1c-0.74,0.619-1.164,1.51-1.164,2.441s0.424,1.822,1.164,2.443L17.176,25.026z"/>
</g>
</svg>
