<svg height="512pt" viewBox="0 0 512 512" width="512pt" xmlns="http://www.w3.org/2000/svg"><path d="m221.96875 376.628906c-1.867188 1.859375-2.929688 4.441406-2.929688 7.070313 0 2.628906 1.0625 5.210937 2.929688 7.070312 1.859375 1.859375 4.429688 2.929688 7.070312 2.929688 2.632813 0 5.210938-1.070313 7.070313-2.929688s2.917969-4.441406 2.917969-7.070312c0-2.628907-1.058594-5.210938-2.917969-7.070313s-4.4375-2.929687-7.070313-2.929687c-2.640624 0-5.210937 1.070312-7.070312 2.929687zm0 0"/><path d="m344 407.699219c-2.628906 0-5.210938 1.070312-7.070312 2.929687-1.859376 1.863282-2.929688 4.441406-2.929688 7.070313 0 2.628906 1.070312 5.210937 2.929688 7.070312 1.859374 1.859375 4.441406 2.929688 7.070312 2.929688s5.210938-1.070313 7.070312-2.929688c1.859376-1.859375 2.929688-4.441406 2.929688-7.070312 0-2.628907-1.070312-5.210938-2.929688-7.070313-1.859374-1.859375-4.441406-2.929687-7.070312-2.929687zm0 0"/><path d="m139.273438 206.257812c17.359374 0 31.632812-13.4375 32.988281-30.453124l30.164062-6.960938c6.894531 13.554688 20.96875 22.863281 37.1875 22.863281 3.769531 0 7.421875-.511719 10.902344-1.453125l8.085937 14.574219c-5.507812 5.867187-8.890624 13.746094-8.890624 22.40625 0 18.066406 14.695312 32.765625 32.765624 32.765625 18.066407 0 32.761719-14.695312 32.761719-32.765625 0-18.066406-14.695312-32.761719-32.761719-32.761719-2.191406 0-4.328124.21875-6.398437.628906l-8.085937-14.574218c8.191406-7.621094 13.328124-18.480469 13.328124-30.527344 0-19.550781-13.523437-35.996094-31.707031-40.488281v-5.550781c13.191407-4.238282 22.765625-16.617188 22.765625-31.195313 0-18.066406-14.699218-32.765625-32.765625-32.765625-18.066406 0-32.761719 14.695312-32.761719 32.765625 0 14.578125 9.574219 26.957031 22.761719 31.195313v5.550781c-17.980469 4.445312-31.394531 20.578125-31.691406 39.84375l-30.160156 6.960937c-5.773438-9.726562-16.378907-16.265625-28.488281-16.265625-18.25 0-33.101563 14.851563-33.101563 33.101563 0 18.253906 14.847656 33.105468 33.101563 33.105468zm155.964843 20.976563c0 7.039063-5.726562 12.765625-12.761719 12.765625-7.039062 0-12.765624-5.726562-12.765624-12.765625s5.726562-12.761719 12.765624-12.761719c7.035157 0 12.761719 5.722656 12.761719 12.761719zm-55.625-167.234375c7.039063 0 12.765625 5.726562 12.765625 12.765625s-5.726562 12.761719-12.765625 12.761719c-7.039062 0-12.765625-5.722656-12.765625-12.761719.003906-7.039063 5.726563-12.765625 12.765625-12.765625zm0 68.292969c11.96875 0 21.707031 9.738281 21.707031 21.707031s-9.738281 21.707031-21.707031 21.707031-21.707031-9.738281-21.707031-21.707031 9.738281-21.707031 21.707031-21.707031zm-100.339843 31.757812c7.226562 0 13.105468 5.878907 13.105468 13.101563 0 7.226562-5.878906 13.105468-13.105468 13.105468-7.222657 0-13.101563-5.878906-13.101563-13.105468 0-7.222656 5.878906-13.101563 13.101563-13.101563zm0 0"/><path d="m502 0h-424c-5.523438 0-10 4.476562-10 10v65.703125h-18c-27.570312 0-50 22.429687-50 50v252c0 27.570313 22.429688 50 50 50h129.035156v24.222656c-27.121094.523438-49.023437 22.730469-49.023437 49.976563 0 5.519531 4.476562 10 10 10h178.050781c5.523438 0 10-4.480469 10-10 0-27.246094-21.90625-49.453125-49.027344-49.976563v-24.222656h27.96875c5.523438 0 10-4.480469 10-10 0-5.523437-4.476562-10-10-10h-257.003906c-16.542969 0-30-13.460937-30-30v-18h418v18c0 16.539063-13.457031 30-30 30h-23c-5.523438 0-10 4.476563-10 10 0 5.519531 4.476562 10 10 10h23c27.570312 0 50-22.429687 50-50v-77.703125h44c5.523438 0 10-4.476562 10-10v-280c0-5.523438-4.476562-10-10-10zm-195.652344 491.898438h-154.621094c4.125-11.640626 15.25-20 28.285157-20h98.050781c13.035156 0 24.160156 8.363281 28.285156 20zm-47.3125-64.199219v24.003906h-60v-24.003906zm178.964844-88h-418v-214c0-16.539063 13.457031-30 30-30h18v194.300781c0 5.523438 4.476562 10 10 10h360zm54-59.699219h-404v-260h404zm0 0"/><path d="m344 104c2.628906 0 5.210938-1.070312 7.070312-2.929688 1.859376-1.859374 2.929688-4.441406 2.929688-7.070312s-1.070312-5.210938-2.929688-7.070312c-1.859374-1.859376-4.441406-2.929688-7.070312-2.929688s-5.210938 1.070312-7.070312 2.929688c-1.859376 1.859374-2.929688 4.441406-2.929688 7.070312s1.070312 5.210938 2.929688 7.070312c1.859374 1.859376 4.441406 2.929688 7.070312 2.929688zm0 0"/><path d="m389 104h65c5.523438 0 10-4.476562 10-10s-4.476562-10-10-10h-65c-5.523438 0-10 4.476562-10 10s4.476562 10 10 10zm0 0"/><path d="m344 160h110c5.523438 0 10-4.476562 10-10s-4.476562-10-10-10h-110c-5.523438 0-10 4.476562-10 10s4.476562 10 10 10zm0 0"/><path d="m344 216h110c5.523438 0 10-4.476562 10-10s-4.476562-10-10-10h-110c-5.523438 0-10 4.476562-10 10s4.476562 10 10 10zm0 0"/></svg>