<svg width="512" height="512" viewBox="0 0 512 512" fill="none" xmlns="http://www.w3.org/2000/svg">
<path fill-rule="evenodd" clip-rule="evenodd" d="M237.583 141C237.583 132.163 230.42 125 221.583 125C212.746 125 205.583 132.163 205.583 141V166.583H180C171.163 166.583 164 173.747 164 182.583C164 191.42 171.163 198.583 180 198.583H191.724V332.917H180C171.163 332.917 164 340.08 164 348.917C164 357.753 171.163 364.917 180 364.917H205.583V390.5C205.583 399.337 212.746 406.5 221.583 406.5C230.42 406.5 237.583 399.337 237.583 390.5V364.917H261.026V390.5C261.026 399.337 268.189 406.5 277.026 406.5C285.862 406.5 293.026 399.337 293.026 390.5V364.877C307.522 364.339 321.312 358.345 331.606 348.051C342.405 337.252 348.472 322.605 348.472 307.333C348.472 292.061 342.405 277.415 331.606 266.616C331.314 266.324 331.02 266.035 330.722 265.75C331.02 265.465 331.314 265.176 331.606 264.884C342.405 254.085 348.472 239.439 348.472 224.167C348.472 208.895 342.405 194.248 331.606 183.449C321.312 173.155 307.522 167.161 293.026 166.623V141C293.026 132.163 285.862 125 277.026 125C268.189 125 261.026 132.163 261.026 141V166.583H237.583V141ZM223.724 249.75V198.583H277.003H290.889C297.674 198.583 304.181 201.279 308.979 206.076C313.777 210.874 316.472 217.382 316.472 224.167C316.472 230.952 313.777 237.459 308.979 242.257C304.181 247.055 297.674 249.75 290.889 249.75L265.062 249.75L223.724 249.75ZM316.472 307.333C316.472 300.548 313.777 294.041 308.979 289.243C304.189 284.453 297.694 281.758 290.921 281.75H290.915L290.891 281.75H223.724V332.917H290.889C297.674 332.917 304.181 330.221 308.979 325.423C313.777 320.626 316.472 314.118 316.472 307.333Z" fill="black"/>
<path d="M32 256C32 132.288 132.288 32 256 32C271.859 32 287.316 33.6456 302.217 36.7698C310.865 38.5832 319.346 33.0423 321.159 24.3938C322.973 15.7454 317.432 7.26431 308.783 5.4509C291.737 1.87652 274.079 0 256 0C114.615 0 0 114.615 0 256C0 397.385 114.615 512 256 512C397.385 512 512 397.385 512 256C512 232.771 508.902 210.24 503.088 188.81C500.774 180.282 491.985 175.244 483.456 177.558C474.928 179.872 469.89 188.661 472.204 197.19C477.284 215.913 480 235.627 480 256C480 379.712 379.712 480 256 480C132.288 480 32 379.712 32 256Z" fill="black"/>
<path d="M425 27C425 18.1634 417.837 11 409 11C400.163 11 393 18.1634 393 27V84H336C327.163 84 320 91.1634 320 100C320 108.837 327.163 116 336 116H393V174C393 182.837 400.163 190 409 190C417.837 190 425 182.837 425 174V116H483C491.837 116 499 108.837 499 100C499 91.1634 491.837 84 483 84H425V27Z" fill="black"/>
</svg>
