<svg width="512" height="512" viewBox="0 0 512 512" fill="none" xmlns="http://www.w3.org/2000/svg">
<path fill-rule="evenodd" clip-rule="evenodd" d="M233 55C233 42.2975 243.297 32 256 32C268.703 32 279 42.2975 279 55C279 67.7025 268.703 78 256 78C243.297 78 233 67.7025 233 55ZM256 0C225.624 0 201 24.6243 201 55C201 79.8311 217.455 100.819 240.056 107.653C240.019 108.097 240 108.546 240 109V140H124C90.8629 140 64 166.863 64 200V312H33L33 288C33 279.163 25.8366 272 17 272C8.16345 272 1 279.163 1 288L1 368C1 376.837 8.16344 384 17 384C25.8366 384 33 376.837 33 368V344H64V452C64 485.137 90.8629 512 124 512H388C421.137 512 448 485.137 448 452V344H479V368C479 376.837 486.163 384 495 384C503.837 384 511 376.837 511 368V288C511 279.163 503.837 272 495 272C486.163 272 479 279.163 479 288V312H448V200C448 166.863 421.137 140 388 140H272V109C272 108.546 271.981 108.097 271.944 107.653C294.545 100.819 311 79.8311 311 55C311 24.6243 286.376 0 256 0ZM96 200C96 184.536 108.536 172 124 172H388C403.464 172 416 184.536 416 200V452C416 467.464 403.464 480 388 480H124C108.536 480 96 467.464 96 452V200ZM152 256.5C152 244.074 162.074 234 174.5 234C186.926 234 197 244.074 197 256.5C197 268.926 186.926 279 174.5 279C162.074 279 152 268.926 152 256.5ZM174.5 202C144.4 202 120 226.4 120 256.5C120 286.6 144.4 311 174.5 311C204.6 311 229 286.6 229 256.5C229 226.4 204.6 202 174.5 202ZM315 256.5C315 244.074 325.074 234 337.5 234C349.926 234 360 244.074 360 256.5C360 268.926 349.926 279 337.5 279C325.074 279 315 268.926 315 256.5ZM337.5 202C307.4 202 283 226.4 283 256.5C283 286.6 307.4 311 337.5 311C367.6 311 392 286.6 392 256.5C392 226.4 367.6 202 337.5 202ZM152 372C152 368.686 154.686 366 158 366H180H212H240H272H300H332H354C357.314 366 360 368.686 360 372V417C360 420.314 357.314 423 354 423H332H300H272H240H212H180H158C154.686 423 152 420.314 152 417V372ZM158 334C137.013 334 120 351.013 120 372V417C120 437.987 137.013 455 158 455H354C374.987 455 392 437.987 392 417V372C392 351.013 374.987 334 354 334H158Z" fill="black"/>
</svg>
