<?xml version="1.0" encoding="iso-8859-1"?>
<!-- Generator: Adobe Illustrator 19.0.0, SVG Export Plug-In . SVG Version: 6.00 Build 0)  -->
<svg version="1.1" id="Capa_1" xmlns="http://www.w3.org/2000/svg" xmlns:xlink="http://www.w3.org/1999/xlink" x="0px" y="0px"
	 viewBox="0 0 488.221 488.221" style="enable-background:new 0 0 488.221 488.221;" xml:space="preserve">
<g>
	<g>
		<path d="M244.11,136.106c-57.438,0-104,46.562-104,104s46.562,104,104,104s104-46.562,104-104
			C348.044,182.696,301.521,136.172,244.11,136.106z M244.11,328.106c-48.601,0-88-39.399-88-88c0-48.601,39.399-88,88-88
			s88,39.399,88,88C332.053,288.683,292.688,328.049,244.11,328.106z"/>
	</g>
</g>
<g>
	<g>
		<path d="M292.11,208.106c0-13.255-10.745-24-24-24h-8v-16h-16v16h-8v-16h-16v16h-24v16h16v80h-16v16h24v16h16v-16h8v16h16v-16h8
			c13.255,0,24-10.745,24-24v-16c-0.021-5.923-2.245-11.627-6.24-16c3.995-4.373,6.219-10.077,6.24-16V208.106z M276.11,272.106
			c0,4.418-3.582,8-8,8h-40v-32h40c4.418,0,8,3.582,8,8V272.106z M276.11,224.106c0,4.418-3.582,8-8,8h-40v-32h40
			c4.418,0,8,3.582,8,8V224.106z"/>
	</g>
</g>
<g>
	<g>
		<path d="M443.167,367.13c-2.515,2.535-4.428,5.603-5.6,8.976h-46.144l-51.456-51.456c18.818-21.262,29.988-48.204,31.736-76.544
			h65.88c4.418,12.497,18.131,19.046,30.627,14.627s19.046-18.131,14.627-30.627c-4.418-12.497-18.131-19.046-30.627-14.627
			c-6.835,2.416-12.211,7.793-14.627,14.627h-65.88c-1.748-28.34-12.918-55.282-31.736-76.544l51.456-51.456h46.144
			c4.378,12.469,18.036,19.027,30.504,14.649c3.39-1.191,6.469-3.129,9.008-5.673c9.369-9.372,9.369-24.564,0-33.936
			c-9.499-9.065-24.445-9.065-33.944,0c-2.515,2.535-4.428,5.603-5.6,8.976H388.11c-2.122,0-4.156,0.844-5.656,2.344l-53.8,53.8
			c-21.26-18.823-48.202-30-76.544-31.752v-65.88c12.497-4.418,19.046-18.131,14.627-30.627S248.607-3.039,236.11,1.379
			c-12.497,4.418-19.046,18.131-14.627,30.627c2.416,6.835,7.793,12.211,14.627,14.627v65.88
			c-28.34,1.748-55.282,12.918-76.544,31.736l-53.8-53.8c-1.5-1.5-3.534-2.344-5.656-2.344H50.654
			c-1.172-3.371-3.086-6.435-5.6-8.968c-9.499-9.065-24.445-9.065-33.944,0c-9.373,9.372-9.375,24.568-0.003,33.941
			c0.001,0.001,0.002,0.002,0.003,0.003c9.241,9.385,24.34,9.501,33.725,0.26c2.628-2.587,4.619-5.749,5.819-9.236h46.144
			l51.456,51.456c-18.818,21.262-29.988,48.204-31.736,76.544h-65.88c-4.418-12.497-18.131-19.046-30.627-14.627
			S0.965,235.609,5.384,248.106c4.418,12.497,18.131,19.046,30.627,14.627c6.835-2.416,12.211-7.793,14.627-14.627h65.88
			c1.748,28.34,12.918,55.282,31.736,76.544l-51.456,51.456H50.654c-1.172-3.371-3.086-6.435-5.6-8.968
			c-9.499-9.065-24.445-9.065-33.944,0c-9.376,9.371-9.379,24.568-0.008,33.944c9.371,9.376,24.568,9.379,33.944,0.008
			c2.519-2.537,4.435-5.607,5.608-8.984h49.456c2.122,0,4.156-0.844,5.656-2.344l53.8-53.8
			c21.262,18.818,48.204,29.988,76.544,31.736v72.408c0.048,0.469,0.142,0.933,0.28,1.384c-12.55,4.264-19.268,17.894-15.005,30.444
			c4.264,12.55,17.894,19.268,30.445,15.005c12.55-4.264,19.268-17.894,15.004-30.445c-2.399-7.061-7.943-12.606-15.004-15.004
			c0.138-0.451,0.231-0.915,0.28-1.384v-72.408c28.34-1.748,55.282-12.918,76.544-31.736l53.8,53.8c1.5,1.5,3.534,2.344,5.656,2.344
			h49.456c1.172,3.371,3.086,6.435,5.6,8.968c9.373,9.373,24.571,9.373,33.944,0c9.373-9.373,9.373-24.571,0-33.944
			C467.611,358.065,452.666,358.065,443.167,367.13z M460.11,232.106c4.418,0,8,3.582,8,8s-3.582,8-8,8s-8-3.582-8-8
			S455.692,232.106,460.11,232.106z M454.454,90.45c3.07-3.178,8.134-3.266,11.312-0.196c3.178,3.07,3.266,8.134,0.196,11.312
			c-0.064,0.067-0.13,0.132-0.196,0.196c-3.164,3.025-8.148,3.025-11.312,0C451.331,98.638,451.331,93.574,454.454,90.45z
			 M33.768,101.76c-0.001,0.001-0.001,0.001-0.002,0.002c-3.164,3.025-8.148,3.025-11.312,0c-3.125-3.124-3.125-8.189-0.002-11.314
			s8.189-3.125,11.314-0.002C36.891,93.57,36.892,98.636,33.768,101.76z M28.11,248.106c-4.418,0-8-3.582-8-8s3.582-8,8-8
			s8,3.582,8,8S32.529,248.106,28.11,248.106z M33.768,389.76c-0.001,0.001-0.001,0.001-0.002,0.002
			c-3.164,3.025-8.148,3.025-11.312,0c-3.125-3.124-3.125-8.189-0.002-11.314c3.124-3.125,8.189-3.125,11.314-0.002
			C36.891,381.57,36.892,386.636,33.768,389.76z M244.11,16.106c4.418,0,8,3.582,8,8s-3.582,8-8,8s-8-3.582-8-8
			S239.692,16.106,244.11,16.106z M252.11,464.106c0,4.418-3.582,8-8,8s-8-3.582-8-8s3.582-8,8-8S252.11,459.688,252.11,464.106z
			 M244.11,352.106c-61.856,0-112-50.144-112-112s50.144-112,112-112s112,50.144,112,112
			C356.044,301.934,305.939,352.04,244.11,352.106z M465.962,389.566c-0.064,0.066-0.129,0.132-0.196,0.196
			c-3.164,3.025-8.148,3.025-11.312,0c-3.123-3.124-3.123-8.188,0-11.312c3.07-3.178,8.134-3.266,11.312-0.196
			C468.944,381.324,469.032,386.388,465.962,389.566z"/>
	</g>
</g>
<g>
</g>
<g>
</g>
<g>
</g>
<g>
</g>
<g>
</g>
<g>
</g>
<g>
</g>
<g>
</g>
<g>
</g>
<g>
</g>
<g>
</g>
<g>
</g>
<g>
</g>
<g>
</g>
<g>
</g>
</svg>
