<svg width="512" height="512" viewBox="0 0 512 512" fill="none" xmlns="http://www.w3.org/2000/svg">
<path fill-rule="evenodd" clip-rule="evenodd" d="M253 6C261.837 6 269 13.1634 269 22V41C269 49.8366 261.837 57 253 57C244.163 57 237 49.8366 237 41V22C237 13.1634 244.163 6 253 6ZM201.139 420C201.308 421.595 201.45 423.133 201.582 424.577L201.644 425.254C201.869 427.714 202.067 429.892 202.322 432H309.678C309.933 429.892 310.131 427.714 310.356 425.254L310.418 424.577C310.55 423.133 310.692 421.595 310.862 420H201.139ZM217.63 464C227.423 473.884 241.005 480 256 480C270.995 480 284.577 473.884 294.37 464H217.63ZM277.587 388H234.413H195.593C187.472 358.792 168.771 334.21 152.572 313.408C135.287 291.21 125 263.329 125 233C125 160.651 183.651 102 256 102C328.349 102 387 160.651 387 233C387 263.329 376.713 291.21 359.428 313.408C343.229 334.21 324.528 358.792 316.407 388H277.587ZM93 233C93 142.978 165.978 70 256 70C346.022 70 419 142.978 419 233C419 270.7 406.182 305.451 384.676 333.069C365.38 357.849 349.013 380.574 345.131 406.38L343.224 419.062C342.834 421.649 342.572 424.349 342.285 427.49L342.213 428.271C341.957 431.094 341.664 434.305 341.233 437.523C340.517 442.856 339.312 448.04 337.663 453.025C326.338 487.262 294.079 512 256 512C217.921 512 185.662 487.262 174.337 453.025C172.688 448.04 171.483 442.856 170.767 437.523C170.335 434.305 170.043 431.094 169.786 428.27L169.715 427.49C169.428 424.349 169.166 421.649 168.776 419.062L166.869 406.38C162.987 380.574 146.62 357.849 127.324 333.069C105.818 305.451 93 270.7 93 233ZM75.6863 78.6863C81.9347 72.4379 92.0653 72.4379 98.3137 78.6863L118.82 99.1924C125.068 105.441 125.068 115.571 118.82 121.82C112.571 128.068 102.441 128.068 96.1924 121.82L75.6863 101.314C69.4379 95.0653 69.4379 84.9347 75.6863 78.6863ZM437.314 78.6863C443.562 84.9347 443.562 95.0653 437.314 101.314L416.808 121.82C410.559 128.068 400.429 128.068 394.18 121.82C387.932 115.571 387.932 105.441 394.18 99.1924L414.686 78.6863C420.935 72.4379 431.065 72.4379 437.314 78.6863ZM19 249C19 240.163 26.1634 233 35 233H64C72.8366 233 80 240.163 80 249C80 257.837 72.8366 265 64 265H35C26.1634 265 19 257.837 19 249ZM432 249C432 240.163 439.163 233 448 233H477C485.837 233 493 240.163 493 249C493 257.837 485.837 265 477 265H448C439.163 265 432 257.837 432 249ZM118.82 361.686C125.068 367.935 125.068 378.065 118.82 384.314L98.3137 404.82C92.0653 411.068 81.9347 411.068 75.6863 404.82C69.4379 398.571 69.4379 388.441 75.6863 382.192L96.1924 361.686C102.441 355.438 112.571 355.438 118.82 361.686ZM394.18 361.686C400.429 355.438 410.559 355.438 416.808 361.686L437.314 382.192C443.562 388.441 443.562 398.571 437.314 404.82C431.065 411.068 420.935 411.068 414.686 404.82L394.18 384.314C387.932 378.065 387.932 367.935 394.18 361.686Z" fill="black"/>
</svg>
