<?xml version="1.0" encoding="iso-8859-1"?>
<!-- Generator: Adobe Illustrator 19.0.0, SVG Export Plug-In . SVG Version: 6.00 Build 0)  -->
<svg version="1.1" id="Layer_1" xmlns="http://www.w3.org/2000/svg" xmlns:xlink="http://www.w3.org/1999/xlink" x="0px" y="0px"
	 viewBox="0 0 512 512" style="enable-background:new 0 0 512 512;" xml:space="preserve">
<g>
	<g>
		<path d="M405.329,287.994c-18.078,0-35.078,4.502-49.999,12.438l-23.391-35.076c37.781-24.773,62.718-67.483,62.718-116.022
			c0-76.584-62.076-138.67-138.661-138.67c-76.577,0-138.662,62.085-138.662,138.67c0,48.413,24.819,91.022,62.413,115.819
			l-23.507,35.045c-14.812-7.795-31.679-12.203-49.569-12.203C47.757,287.994,0,335.746,0,394.65
			c0,58.92,47.757,106.686,106.67,106.686c58.905,0,106.662-47.766,106.662-106.686c0-33.344-15.319-63.123-39.296-82.686
			l24.437-36.438c17.531,8,37.008,12.467,57.523,12.467c20.397,0,39.757-4.404,57.194-12.311l24.391,36.594
			c-23.767,19.561-38.922,49.201-38.922,82.373c0,58.92,47.765,106.686,106.67,106.686C464.25,501.336,512,453.57,512,394.65
			C512,335.746,464.25,287.994,405.329,287.994z M106.67,479.991c-20.374,0-39.655-7.093-55.03-20.108
			c4.835-1.592,8.062-3.139,10.382-4.248c0.781-0.377,1.523-0.736,1.914-0.877c12.907-4.92,21.094-9.859,26.086-15.891
			c5.82,3.938,11.687,6.219,16.648,6.219c4.96,0,10.82-2.281,16.648-6.219c4.984,6.031,13.179,10.971,26.101,15.906
			c0.367,0.125,1.109,0.484,1.898,0.861c2.32,1.109,5.547,2.656,10.375,4.248C146.317,472.898,127.044,479.991,106.67,479.991z
			 M83.397,389.432c0-16,9.352-26.781,23.273-26.781c13.922,0,23.273,10.781,23.273,26.781c0,7.435-3.492,15.968-9.57,23.375
			c-5.711,6.967-11.438,10.219-13.703,10.875c-2.273-0.656-7.992-3.908-13.703-10.875C86.881,405.401,83.397,396.868,83.397,389.432
			z M191.997,394.65c0,17.5-5.227,34.188-14.938,48.279c-1.281-0.812-2.672-1.469-4.164-1.967l-0.586-0.158
			c-8.586-2.311-11.492-4.529-15.312-5.982c-13.554-5.174-17.078-8.891-17.983-10.641c-0.032-0.062-0.055-0.125-0.086-0.189v-0.297
			c7.211-9.686,12.351-21.764,12.351-34.264c0-28.969-19.976-48.094-44.608-48.094c-24.64,0-44.608,19.125-44.608,48.094
			c0,12.5,5.14,24.578,12.351,34.25v0.311c-0.031,0.064-0.055,0.127-0.094,0.189c-0.898,1.75-4.421,5.467-17.984,10.641
			c-3.821,1.453-6.719,3.672-15.305,5.982l-0.594,0.158c-1.484,0.498-2.875,1.154-4.164,1.967
			c-9.71-14.092-14.937-30.779-14.937-48.279c0-22.781,8.875-44.219,24.992-60.328s37.546-24.984,60.343-24.984
			c22.789,0,44.218,8.875,60.335,24.984S191.997,371.869,191.997,394.65z M170.747,218.997l-0.765,0.227
			c-2.157,0.71-4.172,1.703-5.993,2.922c-16.414-20.648-25.32-46.047-25.32-72.812c0-31.344,12.204-60.804,34.368-82.968
			C195.192,44.202,224.66,32,255.996,32c31.351,0,60.818,12.203,82.976,34.367c22.155,22.164,34.358,51.624,34.358,82.967
			c0,26.765-8.906,52.163-25.328,72.812c-1.812-1.219-3.828-2.211-6-2.922l-0.75-0.227c-11.156-2.992-14.921-5.867-19.891-7.75
			c-17.609-6.711-22.171-11.546-23.358-13.828c-0.03-0.086-0.062-0.172-0.109-0.25l-0.109-15.39
			c9.422-12.601,16.156-28.335,16.156-44.632c0-37.648-25.938-62.484-57.937-62.484c-32,0-57.937,24.836-57.937,62.484
			c0,16.296,6.726,32.031,16.147,44.632l-0.109,15.39c-0.038,0.078-0.07,0.164-0.117,0.25c-1.171,2.282-5.75,7.117-23.359,13.828
			C185.669,213.13,181.895,216.005,170.747,218.997z M292.597,137.146c0,11.804-5.577,24.96-15.312,36.101
			c-9.866,11.273-19.054,14.828-21.28,14.851c-2.235-0.023-11.423-3.577-21.282-14.851c-9.742-11.14-15.328-24.296-15.328-36.101
			c0-12.5,3.813-23.07,11.024-30.578c6.546-6.821,15.632-10.57,25.585-10.57c9.945,0,19.03,3.75,25.578,10.57
			C288.784,114.075,292.597,124.646,292.597,137.146z M255.998,266.66c-28.228,0-54.938-9.906-76.157-28.07
			c7.406-2.227,11.968-4.414,15.429-6.062c1.243-0.601,2.219-1.07,2.962-1.351c19.491-7.43,29.874-14.594,34.71-23.961
			c0.296-0.57,0.516-1.062,0.672-1.422l1.719-3.805c7.25,4.727,14.5,7.445,20.672,7.445c6.155,0,13.398-2.711,20.625-7.43
			l1.781,3.868c0.156,0.336,0.358,0.773,0.624,1.281c4.812,9.398,15.203,16.578,34.75,24.031c0.719,0.274,1.703,0.743,2.938,1.344
			c3.469,1.649,8.03,3.836,15.437,6.062C310.942,256.754,284.223,266.66,255.998,266.66z M405.33,479.991
			c-20.375,0.001-39.641-7.093-55.016-20.108c4.812-1.592,8.047-3.139,10.375-4.248c0.781-0.377,1.531-0.736,1.906-0.877
			c12.906-4.92,21.094-9.859,26.094-15.891c5.812,3.938,11.687,6.219,16.64,6.219c4.953,0,10.828-2.281,16.642-6.219
			c4.999,6.031,13.187,10.971,26.108,15.906c0.359,0.125,1.109,0.484,1.891,0.861c2.328,1.109,5.562,2.656,10.391,4.248
			C444.985,472.898,425.705,479.991,405.33,479.991z M382.065,389.432c0-16,9.344-26.781,23.265-26.781
			c13.922,0,23.266,10.781,23.266,26.781c0,7.436-3.469,15.969-9.562,23.375c-5.719,6.967-11.438,10.219-13.703,10.875
			c-2.267-0.657-7.985-3.909-13.704-10.875C385.549,405.401,382.065,396.868,382.065,389.432z M475.718,442.929
			c-1.281-0.812-2.672-1.469-4.156-1.967l-0.593-0.158c-8.595-2.311-11.485-4.529-15.313-5.982
			c-13.562-5.174-17.077-8.891-17.983-10.641c-0.032-0.062-0.047-0.125-0.078-0.189v-0.297c7.203-9.686,12.344-21.764,12.344-34.264
			c0-28.969-19.969-48.094-44.609-48.094s-44.608,19.125-44.608,48.094c0,12.5,5.141,24.578,12.344,34.25v0.311
			c-0.032,0.064-0.047,0.127-0.078,0.189c-0.906,1.75-4.422,5.467-17.984,10.641c-3.812,1.453-6.719,3.672-15.312,5.982
			l-0.595,0.158c-1.484,0.498-2.875,1.154-4.156,1.967c-9.718-14.092-14.937-30.779-14.937-48.279
			c-0.001-22.781,8.873-44.218,24.998-60.328c16.109-16.109,37.53-24.984,60.327-24.984s44.234,8.875,60.344,24.984
			c16.108,16.109,24.983,37.547,24.983,60.328C490.656,412.15,485.437,428.822,475.718,442.929z"/>
	</g>
</g>
<g>
</g>
<g>
</g>
<g>
</g>
<g>
</g>
<g>
</g>
<g>
</g>
<g>
</g>
<g>
</g>
<g>
</g>
<g>
</g>
<g>
</g>
<g>
</g>
<g>
</g>
<g>
</g>
<g>
</g>
</svg>
