<svg width="512" height="512" viewBox="0 0 512 512" fill="none" xmlns="http://www.w3.org/2000/svg">
<path fill-rule="evenodd" clip-rule="evenodd" d="M98.4799 30C107.316 30 114.48 37.1634 114.48 46V82.479H124.719C148.047 82.479 166.958 101.39 166.958 124.719V203.437C166.958 226.766 148.047 245.677 124.719 245.677H114.48V465.833C114.48 474.669 107.316 481.833 98.4799 481.833C89.6434 481.833 82.4799 474.669 82.4799 465.833V245.677H72.2396C48.9113 245.677 30 226.766 30 203.437V124.719C30 101.39 48.9113 82.479 72.2396 82.479H82.4799V46C82.4799 37.1634 89.6434 30 98.4799 30ZM98.4208 114.479H72.2396C66.5844 114.479 62 119.063 62 124.719V203.437C62 209.092 66.5844 213.677 72.2396 213.677H98.4208C98.4405 213.677 98.4602 213.677 98.4799 213.677C98.4996 213.677 98.5193 213.677 98.539 213.677H124.719C130.374 213.677 134.958 209.092 134.958 203.437V124.719C134.958 119.063 130.374 114.479 124.719 114.479H98.539C98.5193 114.479 98.4996 114.479 98.4799 114.479C98.4602 114.479 98.4405 114.479 98.4208 114.479ZM255.918 30C264.754 30 271.918 37.1634 271.918 46V292.395H282.156C305.484 292.395 324.395 311.307 324.395 334.635V413.354C324.395 436.682 305.484 455.593 282.156 455.593H271.918V465.833C271.918 474.67 264.754 481.833 255.918 481.833C247.081 481.833 239.918 474.67 239.918 465.833V455.593H229.677C206.348 455.593 187.437 436.682 187.437 413.354V334.635C187.437 311.307 206.348 292.395 229.677 292.395H239.918V46C239.918 37.1634 247.081 30 255.918 30ZM255.84 324.395H229.677C224.022 324.395 219.437 328.98 219.437 334.635V413.354C219.437 419.009 224.022 423.593 229.677 423.593H282.156C287.811 423.593 292.395 419.009 292.395 413.354V334.635C292.395 328.98 287.811 324.395 282.156 324.395H255.995C255.969 324.396 255.943 324.396 255.918 324.396C255.892 324.396 255.866 324.396 255.84 324.395ZM413.355 30C422.191 30 429.355 37.1634 429.355 46V56.2393H439.594C462.922 56.2393 481.833 75.1506 481.833 98.4789V203.437C481.833 226.765 462.922 245.677 439.594 245.677H429.355V465.833C429.355 474.669 422.191 481.833 413.355 481.833C404.518 481.833 397.355 474.669 397.355 465.833V245.677H387.114C363.786 245.677 344.875 226.765 344.875 203.437V98.4789C344.875 75.1506 363.786 56.2393 387.114 56.2393H397.355V46C397.355 37.1634 404.518 30 413.355 30ZM413.265 88.2393H387.114C381.459 88.2393 376.875 92.8237 376.875 98.4789V203.437C376.875 209.092 381.459 213.677 387.114 213.677H439.594C445.249 213.677 449.833 209.092 449.833 203.437V98.4789C449.833 92.8237 445.249 88.2393 439.594 88.2393H413.444C413.414 88.2395 413.385 88.2396 413.355 88.2396C413.325 88.2396 413.295 88.2395 413.265 88.2393Z" fill="black"/>
</svg>
