<svg width="512" height="512" viewBox="0 0 512 512" fill="none" xmlns="http://www.w3.org/2000/svg">
<path fill-rule="evenodd" clip-rule="evenodd" d="M121.035 71.5867C96.8691 58.8753 70.6597 84.7379 83.048 109.071L149.706 240H322.949C331.785 240 338.949 247.163 338.949 256C338.949 264.837 331.785 272 322.949 272H149.706L83.048 402.929C70.6597 427.262 96.8691 453.125 121.035 440.413L424.519 280.781C444.472 270.285 444.472 241.715 424.519 231.219L121.035 71.5867ZM121.943 256L54.5311 123.589C27.9846 71.4468 84.1476 16.027 135.932 43.2656L439.416 202.898C482.173 225.389 482.174 286.611 439.416 309.102L135.932 468.734C84.1477 495.973 27.9846 440.553 54.5311 388.41L121.943 256Z" fill="black"/>
</svg>
