<svg width="512" height="512" viewBox="0 0 512 512" fill="none" xmlns="http://www.w3.org/2000/svg">
<path fill-rule="evenodd" clip-rule="evenodd" d="M406.153 2.1914C401.808 0.870977 397.107 1.45876 393.221 3.80826L341.67 34.9785C334.17 39.5136 326.15 43.1275 317.784 45.7419L223.324 75.2608C176.328 89.9469 140.397 128.084 128.534 175.87L112.042 242.302C49.4071 254.01 2 308.969 2 375C2 449.558 62.4416 510 137 510C211.558 510 272 449.558 272 375C272 363.744 270.619 352.793 268.012 342.314C280.045 336.562 292.069 329.63 303.597 321.662C308.624 318.188 316.38 314.424 326.92 309.714C329.204 308.693 331.601 307.635 334.083 306.539L334.083 306.539L334.085 306.538C342.498 302.825 351.88 298.685 361.113 294.114C384.625 282.474 411.523 266.073 425.571 240.115C447.692 199.24 469.197 173.354 504.658 131.901C507.372 128.728 508.739 124.62 508.466 120.454C505.813 79.9828 494.939 53.2805 475.103 34.9743C456.202 17.531 430.966 9.73282 406.153 2.1914ZM171.814 244.536C163.345 242.281 154.55 240.828 145.519 240.265L159.591 183.58C168.762 146.639 196.538 117.157 232.868 105.804L327.329 76.2853C338.151 72.9034 348.525 68.2285 358.228 62.362L403.65 34.8973C426.159 41.8975 441.923 47.8984 453.4 58.4904C464.347 68.593 473.058 84.6686 476.025 116.149C442.872 154.98 420.327 182.571 397.428 224.885C388.476 241.427 369.727 254.143 346.916 265.436C338.378 269.662 329.887 273.411 321.584 277.076C318.991 278.221 316.415 279.358 313.863 280.498C303.649 285.063 293.229 289.929 285.403 295.338C259.659 313.132 231.925 324.481 209.797 328.256C198.68 330.153 189.924 329.977 183.876 328.493C177.999 327.05 176.05 324.808 175.28 323.285C175.183 323.092 175.082 322.901 174.977 322.713C174.931 322.631 174.897 322.564 174.871 322.508C175.028 321.987 175.641 320.502 177.778 317.915C182.792 311.846 191.952 304.577 205.519 294.633C208.081 292.754 210.761 290.809 213.539 288.793L213.545 288.788C238.867 270.405 272.364 246.087 300.341 212.183C305.466 205.972 305.176 196.92 299.665 191.049L276.665 166.549C272.91 162.549 267.366 160.752 261.978 161.788L222.978 169.288C218.499 170.149 214.601 172.881 212.262 176.797L171.814 244.536ZM174.796 322.327C174.795 322.325 174.797 322.33 174.799 322.34C174.797 322.333 174.796 322.328 174.796 322.327ZM137 272C149.875 272 162.181 274.356 173.525 278.659C165.55 284.903 158.346 291.192 153.107 297.535C150.109 301.165 147.259 305.38 145.322 310.179C141.898 309.115 138.258 308.542 134.484 308.542C114.334 308.542 98 324.876 98 345.026C98 354.814 101.854 363.702 108.128 370.254L143.281 409.567C145.367 411.75 146.648 414.709 146.648 417.967C146.648 424.683 141.203 430.128 134.486 430.128C127.77 430.128 122.325 424.683 122.325 417.967C122.325 414.465 123.805 411.309 126.174 409.09L109.997 390.998C102.641 397.672 98.0216 407.309 98.0216 418.024C98.0216 438.174 114.356 454.508 134.505 454.508C154.655 454.508 170.989 438.174 170.989 418.024C170.989 408.073 167.005 399.052 160.544 392.47L148.38 378.785L148.629 378.666C158.042 374.703 165.443 366.905 168.877 357.229C171.283 358.183 173.754 358.958 176.249 359.57C188 362.454 201.498 362.135 215.179 359.801C222.481 358.555 230.107 356.688 237.911 354.243C239.28 360.939 240 367.879 240 375C240 431.885 193.885 478 137 478C80.1147 478 34 431.885 34 375C34 318.115 80.1147 272 137 272ZM201.887 256.591C202.171 256.747 202.454 256.904 202.736 257.061C223.253 242.04 246 224.633 266.432 202.402L259.367 194.876L236.062 199.358L201.887 256.591ZM146.645 345.026C146.645 351.742 141.2 357.187 134.484 357.187C127.767 357.187 122.322 351.742 122.322 345.026C122.322 338.309 127.767 332.865 134.484 332.865C141.2 332.865 146.645 338.309 146.645 345.026Z" fill="black"/>
</svg>
